<svg xmlns="http://www.w3.org/2000/svg" width="1600" height="900" viewBox="0 0 1600 900" role="img" aria-label="Demo placeholder">
  <defs>
    <linearGradient id="g" x1="0" y1="0" x2="1" y2="1"><stop offset="0%" stop-color="#152033"/><stop offset="100%" stop-color="#0a0d12"/></linearGradient>
  </defs>
  <rect width="1600" height="900" fill="url(#g)"/>
  <path d="M100 700 L1500 520" stroke="#3a4658" stroke-width="2" stroke-dasharray="14 10" opacity="0.6"/>
  <g transform="translate(500,300) scale(1.1)">
    <path d="M20 120 C80 40 220 20 420 50 C620 80 780 90 860 100 C820 120 620 150 400 160 C200 168 60 150 20 120Z" fill="#c5ccd8"/>
    <path d="M260 55 L360 -20 L400 -10 L320 70Z" fill="#9ea8b8"/>
    <path d="M280 145 L400 230 L440 215 L330 140Z" fill="#9ea8b8"/>
    <ellipse cx="120" cy="105" rx="36" ry="14" fill="#1a2433" opacity="0.5"/>
  </g>
  <rect x="60" y="60" width="220" height="8" rx="4" fill="#c9a45c" opacity="0.5"/>
  <text x="80" y="860" fill="#8a93a3" font-family="Georgia, serif" font-size="26" opacity="0.5">DEMO aircraft</text>
</svg>
