<svg xmlns="http://www.w3.org/2000/svg" width="1600" height="900" viewBox="0 0 1600 900" role="img" aria-label="Demo placeholder">
  <defs>
    <linearGradient id="sky" x1="0" y1="0" x2="0" y2="1"><stop offset="0%" stop-color="#1e3a5f"/><stop offset="55%" stop-color="#0d1520"/><stop offset="100%" stop-color="#070a0e"/></linearGradient>
    <linearGradient id="fus" x1="0" y1="0" x2="1" y2="0"><stop offset="0%" stop-color="#d8dde6"/><stop offset="100%" stop-color="#9aa3b2"/></linearGradient>
    <linearGradient id="gold" x1="0" y1="0" x2="1" y2="1"><stop offset="0%" stop-color="#e0c078"/><stop offset="100%" stop-color="#a8843a"/></linearGradient>
  </defs>
  <rect width="1600" height="900" fill="url(#sky)"/>
  <circle cx="1280" cy="160" r="70" fill="#f0e6c8" opacity="0.35"/>
  <path d="M0 620 Q400 540 800 580 T1600 540 V900 H0Z" fill="#0a1018" opacity="0.85"/>
  <ellipse cx="820" cy="470" rx="420" ry="18" fill="#000" opacity="0.25"/>
  <g transform="translate(420,360)">
    <path d="M40 80 L520 60 L760 72 L780 88 L760 104 L520 118 L40 100 Z" fill="url(#fus)"/>
    <path d="M180 70 L280 10 L320 18 L240 78 Z" fill="#b8c0cc"/>
    <path d="M180 110 L300 170 L340 160 L250 105 Z" fill="#b8c0cc"/>
    <path d="M700 55 L780 20 L800 28 L740 78 Z" fill="#aeb6c2"/>
    <rect x="120" y="74" width="28" height="18" rx="3" fill="#2a3544" opacity="0.7"/>
    <rect x="170" y="72" width="28" height="18" rx="3" fill="#2a3544" opacity="0.7"/>
    <rect x="220" y="70" width="28" height="18" rx="3" fill="#2a3544" opacity="0.7"/>
    <path d="M40 88 L0 95 L40 100 Z" fill="url(#gold)"/>
  </g>
  <text x="80" y="860" fill="#c9a45c" font-family="Georgia, serif" font-size="28" opacity="0.55">DEMO · royalty-free illustration</text>
</svg>
