<svg xmlns="http://www.w3.org/2000/svg" width="1600" height="900" viewBox="0 0 1600 900" role="img" aria-label="Demo placeholder">
  <defs>
    <linearGradient id="g" x1="0" y1="0" x2="1" y2="1"><stop offset="0%" stop-color="#1a2030"/><stop offset="100%" stop-color="#0c1018"/></linearGradient>
  </defs>
  <rect width="1600" height="900" fill="url(#g)"/>
  <rect x="120" y="120" width="1360" height="660" rx="20" fill="#151b26" stroke="#2a3344" stroke-width="2"/>
  <rect x="120" y="120" width="1360" height="90" fill="#1e2633"/>
  <circle cx="180" cy="165" r="14" fill="#c9a45c" opacity="0.5"/>
  <rect x="220" y="152" width="280" height="26" rx="6" fill="#2a3344"/>
  <rect x="200" y="280" width="700" height="36" rx="6" fill="#2a3344"/>
  <rect x="200" y="340" width="900" height="22" rx="4" fill="#222a36"/>
  <rect x="200" y="380" width="820" height="22" rx="4" fill="#222a36"/>
  <rect x="200" y="420" width="760" height="22" rx="4" fill="#222a36"/>
  <rect x="1050" y="280" width="360" height="240" rx="12" fill="#243044"/>
  <path d="M1120 420 L1200 360 L1280 400 L1380 320" fill="none" stroke="#c9a45c" stroke-width="3" opacity="0.4"/>
  <text x="80" y="860" fill="#6b7382" font-family="Georgia, serif" font-size="24" opacity="0.5">DEMO news</text>
</svg>
